<svg width="186" height="102" viewBox="0 0 186 102" fill="none" xmlns="http://www.w3.org/2000/svg">
<path d="M8.05048 102C3.42479 102 -0.361719 98.2433 0.0275778 93.6341C1.59606 75.0633 8.36366 57.2069 19.6698 42.0459C32.6653 24.6194 50.9898 11.6485 72.017 4.99223C93.0441 -1.66408 115.694 -1.66408 136.722 4.99225C155 10.7785 171.237 21.3364 183.705 35.4448C186.794 38.9396 185.932 44.2665 182.125 46.9612C178.449 49.563 173.398 48.727 170.379 45.3856C159.991 33.8891 146.592 25.2766 131.545 20.5135C113.882 14.9222 94.8562 14.9222 77.1933 20.5135C59.5305 26.1048 44.1379 37.0003 33.2217 51.6386C23.9956 64.0103 18.3674 78.5187 16.8457 93.6383C16.3825 98.2407 12.6762 102 8.05048 102Z" fill="#FFCD71"/>
</svg>
