<svg width="209" height="102" viewBox="0 0 209 102" fill="none" xmlns="http://www.w3.org/2000/svg">
<path d="M8.05042 102C3.42473 102 -0.361755 98.2435 0.0275824 93.6342C0.916929 83.1054 3.48135 72.7578 7.64425 62.9663C12.9056 50.5911 20.6174 39.3467 30.3391 29.8751C40.0609 20.4035 51.6023 12.8903 64.3044 7.76428C77.0065 2.6383 90.6205 -1.75652e-06 104.369 0C118.118 1.75652e-06 131.732 2.63831 144.434 7.76429C157.136 12.8903 168.677 20.4035 178.399 29.8751C188.121 39.3467 195.833 50.5911 201.094 62.9663C205.257 72.7578 207.821 83.1055 208.711 93.6343C209.1 98.2435 205.314 102 200.688 102C196.062 102 192.356 98.2409 191.893 93.6384C191.049 85.2547 188.939 77.0225 185.618 69.2117C181.199 58.8165 174.721 49.3712 166.554 41.4151C158.388 33.459 148.693 27.1478 138.024 22.842C127.354 18.5362 115.918 16.32 104.369 16.32C92.8203 16.32 81.3845 18.5362 70.7148 22.842C60.045 27.1478 50.3502 33.459 42.1839 41.4151C34.0177 49.3712 27.5398 58.8165 23.1202 69.2117C19.7994 77.0225 17.6896 85.2547 16.8457 93.6384C16.3825 98.2408 12.6761 102 8.05042 102Z" fill="#FFF7E8"/>
</svg>
